# xmcd
#
# Track frame offsets:
#	150
#	12586
#	27106
#	40323
#	52731
#	65113
#	78974
#	91222
#	101988
#	115320
#	128332
#	142719
#	157069
#	168404
#	181927
#	194204
#	207009
#	220428
#	232006
#	250438
#
# Disc length: 3522
#
# Revision: 1
# Processed by: cddbd v1.5.1PL0 Copyright (c) Steve Scherf et al.
# Submitted via: CDex 1.50
# Normalized: r0:DSETVAR1
#
DISCID=1c0dc014
DTITLE=Various Artist - Salsa Klassiker CD2
DYEAR=2002
DGENRE=Salsa
TTITLE0=Tito Puente and Mongo Santamaria - Ta Bueno Pa Ballar
TTITLE1=Cheo Feliciano con Joe Cuba - Oye Como Va
TTITLE2=Perez Prado - Chambelque
TTITLE3=Machito - Don't Tease Me
TTITLE4=Orquesta Riverside - Mambo En España
TTITLE5=Miguelito Valdes and La Sonora Matancera - Arroz Con Manteca
TTITLE6=Arsenio Rodriguez - Cambia El Paso
TTITLE7=Celia Cruz and La Sonora Matancera - Mi Coquito
TTITLE8=Ismael Rivera - El Chivo De La Campana
TTITLE9=La Plata Sextette - Guantanamera
TTITLE10=Bienvenido Granda and La Sonora Matancera - Oyeme Mama
TTITLE11=Joe Cuba Sextette - Siempre Sea
TTITLE12=Carlos Argentino and La Sonora Matancera - El Novio Celoso
TTITLE13=Pupi Campo - Capullito De Aleli
TTITLE14=Beny Moré - Caricias Cubanas
TTITLE15=La Sonora Matancera - Cantala Con Su Tambo
TTITLE16=Celio Gonzalez and La Sonora Matancera - Besito De Coco
TTITLE17=Guillermo Portabales - Promesas De Un Campesino
TTITLE18=Septeto Nacional De Ignacio Piñeiro - Suavecito
TTITLE19=Conjunto Casino - Mambo Infierno
EXTD=YEAR: 2002
EXTT0=
EXTT1=
EXTT2=
EXTT3=
EXTT4=
EXTT5=
EXTT6=
EXTT7=
EXTT8=
EXTT9=
EXTT10=
EXTT11=
EXTT12=
EXTT13=
EXTT14=
EXTT15=
EXTT16=
EXTT17=
EXTT18=
EXTT19=
PLAYORDER=
